<?xml version="1.0" encoding="UTF-8"?>
<svg width="32px" height="32px" viewBox="0 0 32 32" version="1.1" xmlns="http://www.w3.org/2000/svg" xmlns:xlink="http://www.w3.org/1999/xlink">
    <title>driver_icon</title>
    <g id="driver_icon" stroke="none" stroke-width="1" fill="none" fill-rule="evenodd">
        <g id="courier" transform="translate(8.000000, 6.000000)" fill="#363636" fill-rule="nonzero">
            <path d="M14.0658051,12.4213281 L10.4650256,11.0499609 C11.5782154,10.300625 12.3076923,9.05886719 12.3076923,7.65625 C12.3076923,7.45902344 12.2921846,7.26347656 12.2631385,7.0703125 L12.9230769,7.0703125 C13.2629333,7.0703125 13.5384615,6.80796875 13.5384615,6.484375 C13.5384615,5.52792969 13.0544821,4.6771875 12.3076103,4.14214844 C12.3076103,4.14164062 12.3076923,4.14113281 12.3076923,4.140625 L12.3076923,2.96875 C12.3076923,1.3490625 10.9318564,0 9.23076923,0 L6.76923077,0 C5.06814359,0 3.69230769,1.34902344 3.69230769,2.96875 L3.69230769,4.140625 C3.69230769,4.14113281 3.69238974,4.14164062 3.69238974,4.1421875 C2.94551795,4.6771875 2.46153846,5.52792969 2.46153846,6.484375 C2.46153846,6.80796875 2.73706667,7.0703125 3.07692308,7.0703125 L3.73686154,7.0703125 C3.70781538,7.26347656 3.69230769,7.45902344 3.69230769,7.65625 C3.69230769,9.05882812 4.42174359,10.3005859 5.53497436,11.0499219 L1.93415385,12.4213281 C0.759220513,12.8688281 0,13.9365625 0,15.1414844 L0,19.4140625 C0,19.7376563 0.275528205,20 0.615384615,20 C0.932430769,20 14.9141333,20 15.3846154,20 C15.7244718,20 16,19.7376563 16,19.4140625 L16,15.1414844 C16,13.9365625 15.2407795,12.8688281 14.0658051,12.4213281 Z M4.92307692,2.96875 C4.92307692,1.99472656 5.76849231,1.171875 6.76923077,1.171875 L9.23076923,1.171875 C10.2315077,1.171875 11.0769231,1.99472656 11.0769231,2.96875 L11.0769231,3.5546875 L10.4615385,3.5546875 L5.53846154,3.5546875 L4.92307692,3.5546875 L4.92307692,2.96875 Z M5.53846154,4.7265625 L10.4615385,4.7265625 C11.2638769,4.7265625 11.9482667,5.21636719 12.2022564,5.8984375 L3.79774359,5.8984375 C4.05173333,5.21636719 4.7361641,4.7265625 5.53846154,4.7265625 Z M4.92307692,7.65625 C4.92307692,7.45789063 4.94420513,7.26203125 4.98502564,7.0703125 L11.0149744,7.0703125 C11.0557949,7.26203125 11.0769231,7.45789063 11.0769231,7.65625 C11.0769231,9.29324219 9.69661538,10.625 8,10.625 C6.30338462,10.625 4.92307692,9.29324219 4.92307692,7.65625 Z M8.97587692,11.796875 L8,12.7260547 L7.02412308,11.796875 L8.97587692,11.796875 Z M12.3076923,18.828125 L3.69230769,18.828125 L3.69230769,17.65625 L12.3076923,17.65625 L12.3076923,18.828125 Z M4.07265641,16.484375 L4.68804103,15.3125 L11.312,15.3125 L11.9273846,16.484375 L4.07265641,16.484375 Z M14.7692308,18.828125 L13.5384615,18.828125 L13.5384615,17.0703125 C13.5384615,16.9789453 13.5145026,16.8863281 13.4734769,16.8082813 L12.2427077,14.4645313 C12.1385026,14.2660156 11.9254154,14.140625 11.6923077,14.140625 L8,14.140625 L4.30769231,14.140625 C4.07458462,14.140625 3.86153846,14.2660156 3.75725128,14.4645313 L2.52648205,16.8082813 C2.48590769,16.8855859 2.46153846,16.978125 2.46153846,17.0703125 L2.46153846,18.828125 L1.23076923,18.828125 L1.23076923,15.1414844 C1.23076923,14.4185156 1.68631795,13.7778906 2.39126154,13.5094141 L5.74190769,12.2332813 L7.56488205,13.9690234 C7.68028718,14.0788672 7.8368,14.140625 8,14.140625 C8.16324103,14.140625 8.31971282,14.0788672 8.43511795,13.9689844 L10.2580513,12.2332813 L13.6086974,13.509375 C14.3136821,13.7778906 14.7692308,14.4185547 14.7692308,15.1414844 L14.7692308,18.828125 Z" id="Shape"></path>
        </g>
    </g>
</svg>